<?xml version="1.0" encoding="utf-8"?>
<!-- Generator: Adobe Illustrator 26.0.0, SVG Export Plug-In . SVG Version: 6.00 Build 0)  -->
<svg version="1.1" xmlns="http://www.w3.org/2000/svg" xmlns:xlink="http://www.w3.org/1999/xlink" x="0px" y="0px"
	 viewBox="0 0 96 96" style="enable-background:new 0 0 96 96;" xml:space="preserve">
<style type="text/css">
	.st0{fill:#FFFFFF;}
</style>
<g id="Camada_1">
</g>
<g id="Camada_2">
	<path d="M73.1,96H23.2c-12.7,0-23-10.4-23-23V23c0-12.7,10.4-23,23-23h49.9c12.7,0,23,10.4,23,23V73C96.2,85.6,85.8,96,73.1,96z"/>
</g>
<g id="Camada_3">
	<g>
		<g>
			<path class="st0" d="M77.4,32.5c-1-3.1-2.4-6.4-3.7-8.1c-1.8-2.6-3-3.3-9.3-3.3H52.9v47.7c0,7.6,0.9,8.7,11.8,9.3v2.7H31.3V78
				c10.7-0.6,11.6-1.6,11.6-9.3V21H32.4c-6.3,0-8.2,0.6-10.1,3.5c-1.4,2-2.3,4.3-3.8,7.9h-3.5c0.7-6,1.4-12.1,1.7-17.6h2.6
				c1.7,2.4,3,2.3,6.2,2.3h45.5c3.2,0,4.1-0.4,5.9-2.3h2.8c0,4.6,0.5,11.7,1,17.3L77.4,32.5z"/>
		</g>
	</g>
</g>
</svg>
